<mxfile host="app.diagrams.net" agent="Mozilla/5.0 (X11; Linux x86_64) AppleWebKit/537.36 (KHTML, like Gecko) Chrome/135.0.0.0 Safari/537.36" version="26.2.13">
  <diagram id="C5RBs43oDa-KdzZeNtuy" name="Page-1">
    <mxGraphModel dx="682" dy="851" grid="1" gridSize="10" guides="1" tooltips="1" connect="1" arrows="1" fold="1" page="1" pageScale="1" pageWidth="827" pageHeight="1169" math="0" shadow="0">
      <root>
        <mxCell id="WIyWlLk6GJQsqaUBKTNV-0" />
        <mxCell id="WIyWlLk6GJQsqaUBKTNV-1" parent="WIyWlLk6GJQsqaUBKTNV-0" />
        <mxCell id="SP0kMst_3E6FtPixTC-c-14" value="" style="edgeStyle=none;curved=1;rounded=0;orthogonalLoop=1;jettySize=auto;html=1;fontSize=12;startSize=8;endSize=8;" edge="1" parent="WIyWlLk6GJQsqaUBKTNV-1" source="WIyWlLk6GJQsqaUBKTNV-3" target="SP0kMst_3E6FtPixTC-c-0">
          <mxGeometry relative="1" as="geometry" />
        </mxCell>
        <mxCell id="WIyWlLk6GJQsqaUBKTNV-3" value="Inicio" style="rounded=1;whiteSpace=wrap;html=1;fontSize=12;glass=0;strokeWidth=1;shadow=0;" parent="WIyWlLk6GJQsqaUBKTNV-1" vertex="1">
          <mxGeometry x="160" y="80" width="120" height="40" as="geometry" />
        </mxCell>
        <mxCell id="SP0kMst_3E6FtPixTC-c-8" value="" style="edgeStyle=none;curved=1;rounded=0;orthogonalLoop=1;jettySize=auto;html=1;fontSize=12;startSize=8;endSize=8;" edge="1" parent="WIyWlLk6GJQsqaUBKTNV-1" source="SP0kMst_3E6FtPixTC-c-0" target="SP0kMst_3E6FtPixTC-c-1">
          <mxGeometry relative="1" as="geometry" />
        </mxCell>
        <mxCell id="SP0kMst_3E6FtPixTC-c-0" value="Ingresar a単o" style="rounded=1;whiteSpace=wrap;html=1;" vertex="1" parent="WIyWlLk6GJQsqaUBKTNV-1">
          <mxGeometry x="160" y="180" width="120" height="60" as="geometry" />
        </mxCell>
        <mxCell id="SP0kMst_3E6FtPixTC-c-3" value="" style="edgeStyle=none;curved=1;rounded=0;orthogonalLoop=1;jettySize=auto;html=1;fontSize=12;startSize=8;endSize=8;" edge="1" parent="WIyWlLk6GJQsqaUBKTNV-1" source="SP0kMst_3E6FtPixTC-c-1" target="SP0kMst_3E6FtPixTC-c-2">
          <mxGeometry relative="1" as="geometry" />
        </mxCell>
        <mxCell id="SP0kMst_3E6FtPixTC-c-5" value="" style="edgeStyle=none;curved=1;rounded=0;orthogonalLoop=1;jettySize=auto;html=1;fontSize=12;startSize=8;endSize=8;" edge="1" parent="WIyWlLk6GJQsqaUBKTNV-1" source="SP0kMst_3E6FtPixTC-c-1" target="SP0kMst_3E6FtPixTC-c-4">
          <mxGeometry relative="1" as="geometry" />
        </mxCell>
        <mxCell id="SP0kMst_3E6FtPixTC-c-1" value="A単o es bisiesto" style="rhombus;whiteSpace=wrap;html=1;" vertex="1" parent="WIyWlLk6GJQsqaUBKTNV-1">
          <mxGeometry x="140" y="291" width="160" height="150" as="geometry" />
        </mxCell>
        <mxCell id="SP0kMst_3E6FtPixTC-c-12" style="edgeStyle=none;curved=1;rounded=0;orthogonalLoop=1;jettySize=auto;html=1;exitX=1;exitY=0.5;exitDx=0;exitDy=0;fontSize=12;startSize=8;endSize=8;" edge="1" parent="WIyWlLk6GJQsqaUBKTNV-1" source="SP0kMst_3E6FtPixTC-c-2" target="SP0kMst_3E6FtPixTC-c-9">
          <mxGeometry relative="1" as="geometry" />
        </mxCell>
        <mxCell id="SP0kMst_3E6FtPixTC-c-2" value="Imprimir &quot;Es a単o bisiesto&quot;" style="rounded=1;whiteSpace=wrap;html=1;" vertex="1" parent="WIyWlLk6GJQsqaUBKTNV-1">
          <mxGeometry x="160" y="605" width="120" height="60" as="geometry" />
        </mxCell>
        <mxCell id="SP0kMst_3E6FtPixTC-c-13" style="edgeStyle=none;curved=1;rounded=0;orthogonalLoop=1;jettySize=auto;html=1;exitX=0.5;exitY=1;exitDx=0;exitDy=0;entryX=0.5;entryY=0;entryDx=0;entryDy=0;fontSize=12;startSize=8;endSize=8;" edge="1" parent="WIyWlLk6GJQsqaUBKTNV-1" source="SP0kMst_3E6FtPixTC-c-4" target="SP0kMst_3E6FtPixTC-c-9">
          <mxGeometry relative="1" as="geometry" />
        </mxCell>
        <mxCell id="SP0kMst_3E6FtPixTC-c-4" value="No es bisiesto" style="rounded=1;whiteSpace=wrap;html=1;" vertex="1" parent="WIyWlLk6GJQsqaUBKTNV-1">
          <mxGeometry x="480" y="335" width="120" height="60" as="geometry" />
        </mxCell>
        <mxCell id="SP0kMst_3E6FtPixTC-c-6" value="No" style="text;html=1;align=center;verticalAlign=middle;resizable=0;points=[];autosize=1;strokeColor=none;fillColor=none;fontSize=16;" vertex="1" parent="WIyWlLk6GJQsqaUBKTNV-1">
          <mxGeometry x="300" y="321" width="40" height="30" as="geometry" />
        </mxCell>
        <mxCell id="SP0kMst_3E6FtPixTC-c-7" value="Yes" style="text;html=1;align=center;verticalAlign=middle;resizable=0;points=[];autosize=1;strokeColor=none;fillColor=none;fontSize=16;" vertex="1" parent="WIyWlLk6GJQsqaUBKTNV-1">
          <mxGeometry x="259" y="441" width="50" height="30" as="geometry" />
        </mxCell>
        <mxCell id="SP0kMst_3E6FtPixTC-c-11" value="" style="edgeStyle=none;curved=1;rounded=0;orthogonalLoop=1;jettySize=auto;html=1;fontSize=12;startSize=8;endSize=8;" edge="1" parent="WIyWlLk6GJQsqaUBKTNV-1" source="SP0kMst_3E6FtPixTC-c-9" target="SP0kMst_3E6FtPixTC-c-10">
          <mxGeometry relative="1" as="geometry" />
        </mxCell>
        <mxCell id="SP0kMst_3E6FtPixTC-c-9" value="A単o bisiesto" style="shape=document;whiteSpace=wrap;html=1;boundedLbl=1;" vertex="1" parent="WIyWlLk6GJQsqaUBKTNV-1">
          <mxGeometry x="480" y="595" width="120" height="80" as="geometry" />
        </mxCell>
        <mxCell id="SP0kMst_3E6FtPixTC-c-10" value="Fin" style="rounded=1;whiteSpace=wrap;html=1;" vertex="1" parent="WIyWlLk6GJQsqaUBKTNV-1">
          <mxGeometry x="480" y="710" width="120" height="60" as="geometry" />
        </mxCell>
      </root>
    </mxGraphModel>
  </diagram>
</mxfile>
